<?xml version="1.0" encoding="UTF-8"?>
<svg width="256px" height="256px" viewBox="0 0 256 256" version="1.1" xmlns="http://www.w3.org/2000/svg" xmlns:xlink="http://www.w3.org/1999/xlink">
    <!-- Generator: Sketch 48.1 (47250) - http://www.bohemiancoding.com/sketch -->
    <title>icon</title>
    <desc>Created with Sketch.</desc>
    <defs>
        <rect id="path-1" x="0" y="0" width="220" height="220" rx="13.5"></rect>
        <filter x="-8.9%" y="-8.9%" width="117.7%" height="117.7%" filterUnits="objectBoundingBox" id="filter-2">
            <feOffset dx="0" dy="0" in="SourceAlpha" result="shadowOffsetOuter1"></feOffset>
            <feGaussianBlur stdDeviation="6.5" in="shadowOffsetOuter1" result="shadowBlurOuter1"></feGaussianBlur>
            <feColorMatrix values="0 0 0 0 0.11372549   0 0 0 0 0.282352941   0 0 0 0 0.960784314  0 0 0 0.463485054 0" type="matrix" in="shadowBlurOuter1"></feColorMatrix>
        </filter>
        <linearGradient x1="6.97710396%" y1="-12.2749775%" x2="93.1105611%" y2="105.439919%" id="linearGradient-3">
            <stop stop-color="#64B1E8" offset="0%"></stop>
            <stop stop-color="#4637D6" offset="100%"></stop>
        </linearGradient>
    </defs>
    <g id="Page-1" stroke="none" stroke-width="1" fill="none" fill-rule="evenodd">
        <g id="icon">
            <g id="Icon" transform="translate(18.000000, 18.000000)">
                <g id="App-Icon-60-x-60">
                    <g id="App-Icon">
                        <use fill="black" fill-opacity="1" filter="url(#filter-2)" xlink:href="#path-1"></use>
                        <use fill="#FFFFFF" fill-rule="evenodd" xlink:href="#path-1"></use>
                    </g>
                </g>
                <g id="ic-verified-user-24px" transform="translate(48.202247, 48.202247)">
                    <polygon id="Shape" points="0 0 124.831461 0 124.831461 124.831461 0 124.831461"></polygon>
                    <path d="M62.4157303,5.20131086 L15.6039326,26.0065543 L15.6039326,57.2144195 C15.6039326,86.0816948 35.5769663,113.076498 62.4157303,119.63015 C89.2544944,113.076498 109.227528,86.0816948 109.227528,57.2144195 L109.227528,26.0065543 L62.4157303,5.20131086 Z M52.0131086,88.4222846 L31.2078652,67.6170412 L38.5417135,60.2831929 L52.0131086,73.7025749 L86.2897472,39.4259363 L93.6235955,46.8117978 L52.0131086,88.4222846 Z" id="Shape" fill="url(#linearGradient-3)" fill-rule="nonzero"></path>
                </g>
            </g>
        </g>
    </g>
</svg>